<svg width="128" height="128" viewBox="0 0 128 128" fill="none" xmlns="http://www.w3.org/2000/svg">
<rect width="128" height="128" fill="#E5E5E5"/>
<rect width="128" height="128" fill="#4998D5"/>
<path d="M42 100V8.552H82.754C89.7593 8.552 95.534 9.87733 100.078 12.528C104.622 15.1787 107.983 18.8233 110.16 23.462C112.337 28.006 113.426 33.2127 113.426 39.082C113.426 48.17 110.586 55.4593 104.906 60.95C99.3207 66.4407 91.7473 69.186 82.186 69.186H57.478V100H42ZM57.478 56.974H79.346C85.4993 56.974 90.138 55.3647 93.262 52.146C96.386 48.9273 97.948 44.5727 97.948 39.082C97.948 33.2127 96.4333 28.6687 93.404 25.45C90.4693 22.2313 86.02 20.622 80.056 20.622H57.478V56.974Z" fill="white"/>
<rect x="29.054" y="20" width="41" height="37" fill="#DDDDDD"/>
<path d="M14 100V8.552H54.754C61.7593 8.552 67.534 9.87733 72.078 12.528C76.622 15.1787 79.9827 18.8233 82.16 23.462C84.3373 28.006 85.426 33.2127 85.426 39.082C85.426 48.17 82.586 55.4593 76.906 60.95C71.3207 66.4407 63.7473 69.186 54.186 69.186H29.478V100H14ZM29.478 56.974H51.346C57.4993 56.974 62.138 55.3647 65.262 52.146C68.386 48.9273 69.948 44.5727 69.948 39.082C69.948 33.2127 68.4333 28.6687 65.404 25.45C62.4693 22.2313 58.02 20.622 52.056 20.622H29.478V56.974Z" fill="white"/>
<g clip-path="url(#clip0)">
<path d="M48.9394 48.58C48.662 52.9873 44.9048 56.3624 40.5307 56.1055C36.1714 55.8395 32.8374 52.0162 33.0669 47.5975C33.1309 46.3615 33.481 45.1572 34.0897 44.0796C34.6984 43.002 35.5491 42.0805 36.5746 41.3876L37.9549 43.4654C36.6675 44.4005 35.79 45.9021 35.6925 47.6404C35.5228 50.692 37.7549 53.2896 40.6752 53.4788C43.6012 53.6439 46.1292 51.3318 46.3081 48.295C46.3574 47.3437 46.1772 46.4517 45.8245 45.6453L44.902 44.1455L53.1514 38.9898L53.1549 38.7625C53.1017 36.9123 54.5171 35.3868 56.3285 35.337C56.7634 35.3274 57.196 35.4037 57.6015 35.5613C58.007 35.7189 58.3775 35.9549 58.6918 36.2558C59.0061 36.5567 59.258 36.9165 59.4332 37.3147C59.6084 37.713 59.7034 38.1418 59.7128 38.5768C59.7569 40.4121 58.3267 41.9467 56.5153 41.9966C55.6964 42.0295 54.9279 41.7449 54.3512 41.24L48.3258 44.9869C48.7834 46.1274 48.9925 47.3523 48.9394 48.58V48.58ZM53.2287 31.3287C57.2687 29.4783 62.0148 31.2051 63.8286 35.1858C65.6516 39.1812 63.8528 43.9102 59.8128 45.7605C58.6948 46.2807 57.4724 46.5377 56.2396 46.5119C55.0068 46.4861 53.7963 46.178 52.701 45.6115L53.8847 43.4098C54.6284 43.7654 55.4413 43.9528 56.2656 43.9587C57.0899 43.9646 57.9054 43.7889 58.6541 43.4441C61.4445 42.1576 62.6593 38.9749 61.4459 36.3033C60.2325 33.6317 56.9938 32.4922 54.2331 33.7604C53.3764 34.1645 52.6682 34.7434 52.1256 35.4251L51.2652 36.8548L43.0776 32.128L42.7509 32.3289C41.9899 32.7669 41.0865 32.886 40.2381 32.66C39.3896 32.434 38.6651 31.8814 38.2228 31.1229C37.3175 29.5512 37.9142 27.5264 39.5099 26.6268C41.1238 25.7569 43.1327 26.2611 44.038 27.8328C44.4101 28.5045 44.523 29.2537 44.4052 29.9606L50.4323 33.4374C51.1703 32.5742 52.1161 31.8492 53.2287 31.3287V31.3287ZM36.6524 35.957C33.0212 33.3807 32.1384 28.4181 34.6735 24.8532C37.2235 21.279 42.217 20.4796 45.8482 23.0559C47.9755 24.5514 49.1673 26.8884 49.2684 29.2822L46.7695 29.3456C46.6534 27.7592 45.8531 26.2252 44.4098 25.2095C41.9387 23.4547 38.5477 23.9644 36.8397 26.3452C35.126 28.7501 35.7671 32.1217 38.2381 33.8765C39.2567 34.6008 40.4204 34.9289 41.5773 34.9132L42.3483 34.8688L42.347 45.0825C42.4372 45.1294 42.5514 45.1819 42.669 45.2733C44.2277 46.1771 44.7732 48.1953 43.8545 49.7632C42.9508 51.3219 40.9143 51.8376 39.3133 50.8985C37.7363 49.965 37.1909 47.9468 38.1095 46.3789C38.4968 45.7109 39.0897 45.2439 39.7807 45.0031L39.7677 37.2951C38.6771 37.0859 37.5899 36.6493 36.6524 35.957V35.957Z" fill="black"/>
</g>
<path d="M110.054 59.8C110.05 63.0745 108.982 66.2546 107.019 68.8401C105.055 71.4255 102.307 73.2695 99.2078 74.082V100.5C99.2078 105.407 97.3033 110.112 93.9132 113.581C90.5232 117.051 85.9252 119 81.1309 119C76.3366 119 71.7387 117.051 68.3486 113.581C64.9585 110.112 63.054 105.407 63.054 100.5V82L81.1309 100.5H70.2848C70.2848 103.444 71.4275 106.267 73.4615 108.349C75.4956 110.431 78.2543 111.6 81.1309 111.6C84.0075 111.6 86.7663 110.431 88.8003 108.349C90.8344 106.267 91.9771 103.444 91.9771 100.5V74.082C85.5778 72.38 81.1309 66.46 81.1309 59.689C81.1309 51.512 87.6386 45 95.5925 45C103.619 45 110.054 51.623 110.054 59.8ZM95.5925 67.2C97.5102 67.2 99.3494 66.4204 100.705 65.0326C102.061 63.6448 102.823 61.7626 102.823 59.8C102.823 57.8374 102.061 55.9552 100.705 54.5674C99.3494 53.1796 97.5102 52.4 95.5925 52.4C93.6747 52.4 91.8356 53.1796 90.4795 54.5674C89.1235 55.9552 88.3617 57.8374 88.3617 59.8C88.3617 61.7626 89.1235 63.6448 90.4795 65.0326C91.8356 66.4204 93.6747 67.2 95.5925 67.2Z" fill="black"/>
<path d="M100.054 64.7305C92.3888 69.5068 90.4362 54 91.054 54C92.0116 53.3065 94.054 52 96.1598 48C97.1475 46.1239 97.8754 42.9299 98.054 39C98.054 39 111.976 50.0933 111.054 52C110.132 53.9067 107.719 59.9542 100.054 64.7305Z" fill="white"/>
<defs>
<clipPath id="clip0">
<rect width="41.8397" height="41.8397" fill="white" transform="translate(16.054 29.9196) rotate(-31.5938)"/>
</clipPath>
</defs>
</svg>
